<svg width="16" height="16" viewBox="0 0 16 16" fill="none" xmlns="http://www.w3.org/2000/svg">
<g clip-path="url(#clip0_1620_16921)">
<path d="M7.99982 0.320312C3.75822 0.320312 0.319824 3.75871 0.319824 8.00031C0.319824 12.2419 3.75822 15.6803 7.99982 15.6803C12.2414 15.6803 15.6798 12.2419 15.6798 8.00031C15.6798 3.75871 12.2414 0.320312 7.99982 0.320312ZM6.11982 11.1835H4.56462V6.17871H6.11982V11.1835ZM5.33262 5.56431C4.84142 5.56431 4.52382 5.21631 4.52382 4.78591C4.52382 4.34671 4.85102 4.00911 5.35262 4.00911C5.85422 4.00911 6.16142 4.34671 6.17102 4.78591C6.17102 5.21631 5.85422 5.56431 5.33262 5.56431ZM11.7998 11.1835H10.2446V8.40991C10.2446 7.76431 10.019 7.32591 9.45662 7.32591C9.02702 7.32591 8.77182 7.62271 8.65902 7.90831C8.61742 8.00991 8.60702 8.15391 8.60702 8.29711V11.1827H7.05102V7.77471C7.05102 7.14991 7.03102 6.62751 7.01022 6.17791H8.36142L8.43262 6.87311H8.46382C8.66862 6.54671 9.17022 6.06511 10.0094 6.06511C11.0326 6.06511 11.7998 6.75071 11.7998 8.22431V11.1835Z" fill="#11143A"/>
</g>
<defs>
<clipPath id="clip0_1620_16921">
<rect width="16" height="16" fill="white"/>
</clipPath>
</defs>
</svg>
