<svg width="16" height="16" viewBox="0 0 16 16" fill="none" xmlns="http://www.w3.org/2000/svg">
<g clip-path="url(#clip0_1620_16919)">
<path d="M7.99982 0.320312C3.75822 0.320312 0.319824 3.75871 0.319824 8.00031C0.319824 12.2419 3.75822 15.6803 7.99982 15.6803C12.2414 15.6803 15.6798 12.2419 15.6798 8.00031C15.6798 3.75871 12.2414 0.320312 7.99982 0.320312ZM11.1238 6.61151C11.127 6.67711 11.1278 6.74271 11.1278 6.80671C11.1278 8.80671 9.60702 11.1115 6.82462 11.1115C6.00246 11.1129 5.1974 10.8768 4.50622 10.4315C4.62382 10.4459 4.74462 10.4515 4.86702 10.4515C5.57582 10.4515 6.22782 10.2107 6.74542 9.80431C6.43 9.79812 6.12436 9.69367 5.87111 9.50553C5.61787 9.31738 5.42962 9.05492 5.33262 8.75471C5.55915 8.79779 5.7925 8.78876 6.01502 8.72831C5.67266 8.65908 5.36478 8.47357 5.14359 8.20324C4.9224 7.93291 4.80151 7.5944 4.80142 7.24511V7.22671C5.00542 7.33951 5.23902 7.40831 5.48702 7.41631C5.16606 7.20265 4.93885 6.87445 4.85186 6.49882C4.76487 6.12319 4.82467 5.72851 5.01902 5.39551C5.39899 5.86271 5.87283 6.24491 6.40988 6.51736C6.94693 6.78981 7.5352 6.94644 8.13662 6.97711C8.06016 6.65256 8.09307 6.31184 8.23023 6.00792C8.36739 5.704 8.60112 5.4539 8.89508 5.29652C9.18904 5.13914 9.52676 5.08329 9.85574 5.13765C10.1847 5.19201 10.4865 5.35353 10.7142 5.59711C11.0528 5.53013 11.3774 5.40596 11.6742 5.22991C11.5614 5.58042 11.3252 5.87805 11.0094 6.06751C11.3093 6.03139 11.6021 5.95077 11.8782 5.82831C11.6754 6.13223 11.4199 6.39746 11.1238 6.61151Z" fill="#11143A"/>
</g>
<defs>
<clipPath id="clip0_1620_16919">
<rect width="16" height="16" fill="white"/>
</clipPath>
</defs>
</svg>
